<?xml version="1.0" standalone="no"?><svg xmlns="http://www.w3.org/2000/svg" viewBox="0 0 1440 320"><path fill="#149414" fill-opacity="1" d="M0,32L30,48C60,64,120,96,180,101.3C240,107,300,85,360,96C420,107,480,149,540,165.3C600,181,660,171,720,192C780,213,840,267,900,266.7C960,267,1020,213,1080,186.7C1140,160,1200,160,1260,170.7C1320,181,1380,203,1410,213.3L1440,224L1440,320L1410,320C1380,320,1320,320,1260,320C1200,320,1140,320,1080,320C1020,320,960,320,900,320C840,320,780,320,720,320C660,320,600,320,540,320C480,320,420,320,360,320C300,320,240,320,180,320C120,320,60,320,30,320L0,320Z"></path></svg>